<?xml version="1.0" standalone="no"?>
<!DOCTYPE svg PUBLIC "-//W3C//DTD SVG 20010904//EN"
 "http://www.w3.org/TR/2001/REC-SVG-20010904/DTD/svg10.dtd">
<svg version="1.0" xmlns="http://www.w3.org/2000/svg"
 width="494.000000pt" height="494.000000pt" viewBox="0 0 494.000000 494.000000"
 preserveAspectRatio="xMidYMid meet">
<metadata>
Created by potrace 1.11, written by Peter Selinger 2001-2013
</metadata>
<g transform="translate(0.000000,494.000000) scale(0.100000,-0.100000)"
fill="#000000" stroke="none">
<path d="M3207 4433 c-7 -15 -112 -264 -233 -551 -120 -288 -221 -516 -222
-507 -4 16 -30 17 -370 10 -202 -4 -370 -9 -374 -12 -5 -2 -8 -31 -8 -65 l0
-60 333 6 c182 4 344 9 359 12 26 5 26 3 -64 -208 -49 -117 -97 -231 -105
-253 -13 -34 -31 -49 -112 -101 -180 -115 -321 -161 -466 -152 -249 16 -476
199 -585 472 -73 183 -82 411 -24 614 38 132 133 283 236 377 241 219 511 229
815 30 53 -35 101 -61 105 -59 4 3 8 38 8 79 l0 74 -65 37 c-249 138 -465 168
-685 95 -448 -150 -702 -666 -575 -1166 68 -269 241 -495 463 -605 210 -104
492 -93 730 29 23 12 42 19 42 15 0 -13 -743 -1774 -749 -1774 -4 0 -177 314
-385 699 -208 384 -381 704 -385 710 -7 11 -111 -37 -111 -52 0 -4 184 -348
410 -764 225 -416 407 -759 404 -762 -5 -5 108 -62 113 -57 1 1 78 182 171
403 l168 401 36 -111 c202 -623 211 -647 228 -647 10 0 34 -7 55 -16 20 -8 40
-13 43 -9 3 3 128 310 278 683 256 636 273 675 284 647 37 -101 524 -1361 526
-1364 2 -2 27 5 56 16 47 18 54 24 59 54 3 19 130 394 282 834 152 440 277
806 279 814 3 15 -101 56 -113 44 -4 -5 -123 -345 -265 -757 -190 -550 -260
-744 -266 -730 -5 11 -123 314 -262 674 l-253 655 -54 0 -54 0 -267 -665
c-147 -366 -269 -669 -271 -675 -2 -5 -58 157 -125 360 l-121 370 571 1360
c314 748 574 1363 578 1368 3 4 179 -278 390 -628 l384 -635 46 27 c25 14 49
29 53 33 4 4 -182 320 -413 703 -354 585 -425 697 -443 696 -12 0 -32 2 -44 6
-17 6 -24 1 -36 -22z"/>
</g>
</svg>
